<?xml version="1.0" standalone="no"?>
<!DOCTYPE svg PUBLIC "-//W3C//DTD SVG 20010904//EN"
 "http://www.w3.org/TR/2001/REC-SVG-20010904/DTD/svg10.dtd">
<svg version="1.0" xmlns="http://www.w3.org/2000/svg"
 width="288.000000pt" height="288.000000pt" viewBox="0 0 288.000000 288.000000"
 preserveAspectRatio="xMidYMid meet">
<metadata>
Created by potrace 1.14, written by Peter Selinger 2001-2017
</metadata>
<g transform="translate(0.000000,288.000000) scale(0.100000,-0.100000)"
fill="#000000" stroke="none">
<path d="M0 1440 l0 -1440 1440 0 1440 0 0 1440 0 1440 -1440 0 -1440 0 0
-1440z m1378 394 c50 -25 102 -77 102 -102 0 -21 11 -13 52 33 52 59 107 86
185 93 93 7 148 -12 208 -72 83 -84 88 -107 93 -463 l4 -303 -81 0 -80 0 -3
303 c-3 268 -5 306 -21 335 -26 48 -72 72 -135 72 -84 0 -138 -38 -167 -119
-12 -35 -15 -97 -15 -317 l0 -274 -79 0 -80 0 -3 303 c-3 268 -5 306 -21 335
-27 49 -71 72 -140 72 -70 0 -119 -21 -153 -65 l-24 -32 0 -306 0 -307 -75 0
-75 0 0 415 0 416 68 -3 67 -3 3 -47 c3 -47 14 -62 25 -33 8 19 76 64 124 81
65 23 161 18 221 -12z"/>
</g>
</svg>
